# xmcd
#
# Track frame offsets:
#	150
#	15611
#	41037
#	58143
#	80088
#	116926
#	131043
#	154543
#	174035
#	183828
#	204006
#
# Disc length: 2918 seconds
#
# Revision: 1
# Processed by: cddbd v1.5.2PL0 Copyright (c) Steve Scherf et al.
# Submitted via: audiograbber 1.83.01
#
DISCID=8a0b640b
DTITLE=Joe Bonamassa - Sloe Gin
DYEAR=2007
DGENRE=Bluesrock
TTITLE0=Ball Peen Hammer
TTITLE1=One of These Days - Joe Bonama
TTITLE2=Seagull
TTITLE3=Dirt in My Pocket
TTITLE4=Sloe Gin
TTITLE5=Another Kind of Love
TTITLE6=Around the Bend
TTITLE7=Black Night
TTITLE8=Jelly Roll
TTITLE9=Richmond
TTITLE10=India
EXTD=
EXTT0=
EXTT1=
EXTT2=
EXTT3=
EXTT4=
EXTT5=
EXTT6=
EXTT7=
EXTT8=
EXTT9=
EXTT10=
PLAYORDER=
